@startuml modelo-dominio

'skinparam linetype polyline
hide empty members

class ProgresionArmonica

package TeoriaMusical {
    class Nota
    class Calidad
    class Acorde
    class Escala
}

package SistemaArmonico {
    class GradoArmonico
    class FuncionArmonica
    class EnlaceArmonico
    class MapaArmonico
}

' Relaciones de Teoría Musical
Escala *-r- Nota : contiene
Acorde o-l- Nota : raíz
Acorde o-r- Calidad : tiene

' Relaciones del Sistema Armónico
MapaArmonico *- EnlaceArmonico : compone
GradoArmonico o-- Acorde : representa
GradoArmonico o- FuncionArmonica : cumple
EnlaceArmonico o-u- Acorde : origen
EnlaceArmonico o-- Acorde : destino
MapaArmonico o-- Escala : corresponde a

' Relaciones de Progresión
ProgresionArmonica ...l.> MapaArmonico : consulta
ProgresionArmonica o--- Acorde : secuencia

@enduml
